<svg xmlns="http://www.w3.org/2000/svg" viewBox="0 0 100 125" fill="none" x="0px" y="0px"><path fill-rule="evenodd" clip-rule="evenodd" d="M24.8 14.9C24.8 20.3676 20.3676 24.8 14.9 24.8C9.43238 24.8 5 20.3676 5 14.9C5 9.43238 9.43238 5 14.9 5C20.3676 5 24.8 9.43238 24.8 14.9ZM59.9 14.9C59.9 20.3676 55.4676 24.8 50 24.8C44.5324 24.8 40.1 20.3676 40.1 14.9C40.1 9.43238 44.5324 5 50 5C55.4676 5 59.9 9.43238 59.9 14.9ZM85.1 24.8C90.5676 24.8 95 20.3676 95 14.9C95 9.43238 90.5676 5 85.1 5C79.6324 5 75.2 9.43238 75.2 14.9C75.2 20.3676 79.6324 24.8 85.1 24.8ZM95 85.1C95 90.5676 90.5676 95 85.1 95C79.6324 95 75.2 90.5676 75.2 85.1C75.2 79.6324 79.6324 75.2 85.1 75.2C90.5676 75.2 95 79.6324 95 85.1ZM14.9 95C20.3676 95 24.8 90.5676 24.8 85.1C24.8 79.6324 20.3676 75.2 14.9 75.2C9.43238 75.2 5 79.6324 5 85.1C5 90.5676 9.43238 95 14.9 95ZM59.9 85.1C59.9 90.5676 55.4676 95 50 95C44.5324 95 40.1 90.5676 40.1 85.1C40.1 79.6324 44.5324 75.2 50 75.2C55.4676 75.2 59.9 79.6324 59.9 85.1ZM14.9 59.9C20.3676 59.9 24.8 55.4676 24.8 50C24.8 44.5324 20.3676 40.1 14.9 40.1C9.43238 40.1 5 44.5324 5 50C5 55.4676 9.43238 59.9 14.9 59.9ZM59.9 50C59.9 55.4676 55.4676 59.9 50 59.9C44.5324 59.9 40.1 55.4676 40.1 50C40.1 44.5324 44.5324 40.1 50 40.1C55.4676 40.1 59.9 44.5324 59.9 50ZM85.1 59.9C90.5676 59.9 95 55.4676 95 50C95 44.5324 90.5676 40.1 85.1 40.1C79.6324 40.1 75.2 44.5324 75.2 50C75.2 55.4676 79.6324 59.9 85.1 59.9Z" fill="black"/><text x="0" y="115" fill="#000000" font-size="5px" font-weight="bold" font-family="'Helvetica Neue', Helvetica, Arial-Unicode, Arial, Sans-serif">Created by Dave Robson</text><text x="0" y="120" fill="#000000" font-size="5px" font-weight="bold" font-family="'Helvetica Neue', Helvetica, Arial-Unicode, Arial, Sans-serif">from the Noun Project</text></svg>