<svg xmlns:dc="http://purl.org/dc/elements/1.1/" xmlns:cc="http://creativecommons.org/ns#" xmlns:rdf="http://www.w3.org/1999/02/22-rdf-syntax-ns#" xmlns:svg="http://www.w3.org/2000/svg" xmlns="http://www.w3.org/2000/svg" xmlns:sodipodi="http://sodipodi.sourceforge.net/DTD/sodipodi-0.dtd" xmlns:inkscape="http://www.inkscape.org/namespaces/inkscape" viewBox="0 0 8.4666665 10.583333625" version="1.1" x="0px" y="0px"><g transform="translate(0,-288.53332)"><path style="color:#808080;font-style:normal;font-variant:normal;font-weight:normal;font-stretch:normal;font-size:medium;line-height:normal;font-family:sans-serif;font-variant-ligatures:normal;font-variant-position:normal;font-variant-caps:normal;font-variant-numeric:normal;font-variant-alternates:normal;font-feature-settings:normal;text-indent:0;text-align:start;text-decoration:none;text-decoration-line:none;text-decoration-style:solid;text-decoration-color:#000000;letter-spacing:normal;word-spacing:normal;text-transform:none;writing-mode:lr-tb;direction:ltr;text-orientation:mixed;dominant-baseline:auto;baseline-shift:baseline;text-anchor:start;white-space:normal;shape-padding:0;clip-rule:nonzero;display:inline;overflow:visible;visibility:visible;opacity:1;isolation:auto;mix-blend-mode:normal;color-interpolation:sRGB;color-interpolation-filters:linearRGB;solid-color:#000000;solid-opacity:1;vector-effect:none;fill:#808080;fill-opacity:1;fill-rule:nonzero;stroke:none;stroke-width:0.5291667;stroke-linecap:round;stroke-linejoin:round;stroke-miterlimit:4;stroke-dasharray:none;stroke-dashoffset:0;stroke-opacity:1;color-rendering:auto;image-rendering:auto;shape-rendering:auto;text-rendering:auto;enable-background:accumulate" d="m 7.9374983,292.76666 c 0,-0.43524 -0.35851,-0.79376 -0.79375,-0.79376 -0.43524,0 -0.79375,0.35852 -0.79375,0.79376 0,0.43523 0.35851,0.79375 0.79375,0.79375 0.43524,0 0.79375,-0.35852 0.79375,-0.79375 z m -2.91042,0 c 0,-0.43524 -0.3585,-0.79376 -0.79375,-0.79376 -0.43524,0 -0.79375,0.35852 -0.79375,0.79376 0,0.43523 0.35851,0.79375 0.79375,0.79375 0.43525,0 0.79375,-0.35852 0.79375,-0.79375 z m -2.91041,0 c 0,-0.43524 -0.35851,-0.79376 -0.79375,-0.79376 -0.43525,0 -0.79375,0.35852 -0.79375,0.79376 0,0.43523 0.3585,0.79375 0.79375,0.79375 0.43524,0 0.79375,-0.35852 0.79375,-0.79375 z"/></g><text x="0" y="23.4666669" fill="#808080" font-size="5px" font-weight="bold" font-family="'Helvetica Neue', Helvetica, Arial-Unicode, Arial, Sans-serif">Created by Nawicon</text><text x="0" y="28.4666669" fill="#808080" font-size="5px" font-weight="bold" font-family="'Helvetica Neue', Helvetica, Arial-Unicode, Arial, Sans-serif">from the Noun Project</text></svg>