<svg xmlns:dc="http://purl.org/dc/elements/1.1/" xmlns:cc="http://creativecommons.org/ns#" xmlns:rdf="http://www.w3.org/1999/02/22-rdf-syntax-ns#" xmlns:svg="http://www.w3.org/2000/svg" xmlns="http://www.w3.org/2000/svg" viewBox="0 0 8.4666665 10.583333625" version="1.1" x="0px" y="0px"><g transform="translate(1.9245e-5,-8.7709064e-5)" style="" display="inline"><path style="color:#000000;font-style:normal;font-variant:normal;font-weight:normal;font-stretch:normal;font-size:medium;line-height:normal;font-family:sans-serif;font-variant-ligatures:normal;font-variant-position:normal;font-variant-caps:normal;font-variant-numeric:normal;font-variant-alternates:normal;font-variant-east-asian:normal;font-feature-settings:normal;font-variation-settings:normal;text-indent:0;text-align:start;text-decoration:none;text-decoration-line:none;text-decoration-style:solid;text-decoration-color:#000000;letter-spacing:normal;word-spacing:normal;text-transform:none;writing-mode:lr-tb;direction:ltr;text-orientation:mixed;dominant-baseline:auto;baseline-shift:baseline;text-anchor:start;white-space:normal;shape-padding:0;shape-margin:0;inline-size:0;clip-rule:nonzero;display:inline;overflow:visible;visibility:visible;opacity:1;isolation:auto;mix-blend-mode:normal;color-interpolation:sRGB;color-interpolation-filters:linearRGB;solid-color:#000000;solid-opacity:1;vector-effect:none;fill:#000000;fill-opacity:1;fill-rule:nonzero;stroke:none;stroke-width:3.77953;stroke-linecap:round;stroke-linejoin:round;stroke-miterlimit:4;stroke-dasharray:none;stroke-dashoffset:0;stroke-opacity:1;color-rendering:auto;image-rendering:auto;shape-rendering:auto;text-rendering:auto;enable-background:accumulate;stop-color:#000000;stop-opacity:1" d="m 57.564453,-34.189453 c -0.459963,-0.02006 -0.935173,0.09368 -1.345703,0.390625 l -6.628906,4.796875 H 44.974609 C 43.336796,-29.001953 42,-27.634122 42,-25.996094 v 3.992188 c 0,1.638028 1.336796,3.005859 2.974609,3.005859 h 4.615235 l 6.628906,4.796875 c 0.82106,0.594044 1.901569,0.456686 2.597656,-0.02148 0.696088,-0.478016 1.181641,-1.278931 1.181641,-2.222656 v -15.109376 c 0,-0.943729 -0.485553,-1.744636 -1.181641,-2.222656 -0.348043,-0.239008 -0.79199,-0.392051 -1.251953,-0.412109 z" transform="matrix(0.26458333,0,0,0.26458333,-10.583333,10.583333)"/><path style="color:#000000;font-style:normal;font-variant:normal;font-weight:normal;font-stretch:normal;font-size:medium;line-height:normal;font-family:sans-serif;font-variant-ligatures:normal;font-variant-position:normal;font-variant-caps:normal;font-variant-numeric:normal;font-variant-alternates:normal;font-variant-east-asian:normal;font-feature-settings:normal;font-variation-settings:normal;text-indent:0;text-align:start;text-decoration:none;text-decoration-line:none;text-decoration-style:solid;text-decoration-color:#000000;letter-spacing:normal;word-spacing:normal;text-transform:none;writing-mode:lr-tb;direction:ltr;text-orientation:mixed;dominant-baseline:auto;baseline-shift:baseline;text-anchor:start;white-space:normal;shape-padding:0;shape-margin:0;inline-size:0;clip-rule:nonzero;display:inline;overflow:visible;visibility:visible;opacity:1;isolation:auto;mix-blend-mode:normal;color-interpolation:sRGB;color-interpolation-filters:linearRGB;solid-color:#000000;solid-opacity:1;vector-effect:none;fill:#000000;fill-opacity:1;fill-rule:nonzero;stroke:none;stroke-width:1;stroke-linecap:round;stroke-linejoin:miter;stroke-miterlimit:4;stroke-dasharray:none;stroke-dashoffset:0;stroke-opacity:1;color-rendering:auto;image-rendering:auto;shape-rendering:auto;text-rendering:auto;enable-background:accumulate;stop-color:#000000;stop-opacity:1" d="m 5.8983482,3.1135051 c -0.1036445,0.10338 -0.1036445,0.271273 0,0.374654 l 0.6066813,0.606681 -0.6066813,0.606165 c -0.1039903,0.103439 -0.1039903,0.271732 0,0.375171 0.1034388,0.10399 0.2717321,0.10399 0.3751709,0 l 0.6061644,-0.606682 0.6066814,0.606682 c 0.1032023,0.102612 0.2699014,0.102612 0.3731038,0 0.1039902,-0.103439 0.1039902,-0.271732 0,-0.375171 L 7.253821,4.0948401 7.8594687,3.4881591 c 0.1036444,-0.103381 0.1036444,-0.271274 0,-0.374654 -0.1158016,-0.115802 -0.2662542,-0.10685 -0.3731038,0 L 6.8796835,3.7201861 6.2735191,3.1135051 c -0.1162039,-0.116204 -0.2729412,-0.10223 -0.3751709,0 z"/></g><text x="0" y="23.4666669" fill="#000000" font-size="5px" font-weight="bold" font-family="'Helvetica Neue', Helvetica, Arial-Unicode, Arial, Sans-serif">Created by Adrian Adam</text><text x="0" y="28.4666669" fill="#000000" font-size="5px" font-weight="bold" font-family="'Helvetica Neue', Helvetica, Arial-Unicode, Arial, Sans-serif">from the Noun Project</text></svg>